<?xml version="1.0" encoding="UTF-8"?>
<!DOCTYPE svg PUBLIC "-//W3C//DTD SVG 1.1//EN" "http://www.w3.org/Graphics/SVG/1.1/DTD/svg11.dtd">
<!-- Creator: CorelDRAW 2020 (64-Bit) -->
<svg xmlns="http://www.w3.org/2000/svg" xml:space="preserve" width="142.414mm" height="142.414mm" version="1.1" style="shape-rendering:geometricPrecision; text-rendering:geometricPrecision; image-rendering:optimizeQuality; fill-rule:evenodd; clip-rule:evenodd"
viewBox="0 0 14238.46 14238.46"
 xmlns:xlink="http://www.w3.org/1999/xlink"
 xmlns:xodm="http://www.corel.com/coreldraw/odm/2003">
 <defs>
  <style type="text/css">
   <![CDATA[
    .fil0 {fill:#003399}
    .fil2 {fill:#11CE2C}
    .fil1 {fill:#FE0000}
    .fil4 {fill:#003399;fill-rule:nonzero}
    .fil3 {fill:#FE0000;fill-rule:nonzero}
   ]]>
  </style>
 </defs>
 <g id="Слой_x0020_1">
  <metadata id="CorelCorpID_0Corel-Layer"/>
  <g id="_2354665008320">
   <g>
    <path class="fil0" d="M6620.78 9729.12c1594.97,0 3119.46,123.93 4519.52,349.65 -1110.54,-902.44 -3906.32,-1002.16 -3906.32,-1002.16 1860.9,-4426.46 -120.52,-7195.18 -120.52,-7195.18 0,0 1400.19,4034.46 -1915.98,7880.95 467.02,-21.97 941.96,-33.25 1423.31,-33.25z"/>
    <path class="fil1" d="M5011.19 9771.72c536.06,-743.47 3351.88,-4916.87 1719.82,-8437 0,0 529.06,4532.27 -3632.86,8553.11l442.32 0c479.63,-50.47 970.49,-89.42 1470.72,-116.12z"/>
   </g>
   <path class="fil2" d="M7119.23 0c3931.84,0 7119.23,3187.39 7119.23,7119.23 0,3931.84 -3187.39,7119.23 -7119.23,7119.23 -3931.84,0 -7119.23,-3187.39 -7119.23,-7119.23 0,-3931.84 3187.39,-7119.23 7119.23,-7119.23zm0 699.86c3545.32,0 6419.37,2874.06 6419.37,6419.37 0,3545.33 -2874.06,6419.38 -6419.37,6419.38 -3545.32,0 -6419.37,-2874.06 -6419.37,-6419.38 0,-3545.32 2874.06,-6419.37 6419.37,-6419.37z"/>
   <g>
    <path class="fil3" d="M3180.55 11394.08l0 28.71 -582.82 0 0 -28.71 36.88 0c32.38,0 58.57,-5.92 78.27,-17.46 14.37,-7.89 25.34,-21.13 32.94,-39.98 5.92,-13.24 9.01,-48.15 9.01,-104.74l0 -738.24c0,-57.72 -3.09,-93.76 -9.01,-108.12 -6.19,-14.37 -18.3,-27.03 -36.6,-37.73 -18.3,-10.98 -43.07,-16.33 -74.61,-16.33l-36.88 0 0 -28.72 582.82 0 0 28.72 -36.88 0c-32.09,0 -58,5.91 -77.7,17.46 -14.08,7.88 -25.34,21.12 -33.51,39.98 -5.91,13.23 -9.01,48.14 -9.01,104.74l0 738.24c0,57.72 3.1,93.75 9.3,108.12 6.47,14.36 18.58,27.02 36.88,37.72 18.3,10.98 43.07,16.34 74.04,16.34l36.88 0zm584.8 -763.58l11.82 263.54 -28.71 0c-33.22,-77.99 -67.58,-131.2 -103.33,-159.93 -35.48,-28.43 -70.96,-42.79 -106.43,-42.79 -22.25,0 -41.39,7.6 -57.16,22.53 -15.77,15.2 -23.65,32.65 -23.65,52.37 0,14.64 5.35,28.99 16.33,42.79 17.46,22.53 66.45,60.82 146.69,115.44 80.52,54.63 133.17,101.08 158.8,139.09 25.33,38.01 38.01,80.8 38.01,127.82 0,42.8 -10.7,84.75 -32.1,125.86 -21.12,41.1 -51.24,72.64 -90.09,94.6 -38.86,21.96 -81.65,32.94 -128.67,32.94 -36.6,0 -85.59,-11.55 -146.69,-34.91 -16.62,-5.92 -27.59,-9.02 -33.78,-9.02 -18.03,0 -32.94,14.08 -45.05,42.24l-28.72 0 -13.51 -277.05 28.71 0c24.49,72.08 58.28,126.13 101.36,162.18 42.8,36.03 83.34,54.06 121.63,54.06 26.46,0 47.86,-8.17 64.48,-24.22 16.61,-16.33 25.05,-35.76 25.05,-58.85 0,-26.46 -8.17,-48.99 -24.49,-68.42 -16.61,-19.15 -53.21,-48.15 -110.09,-87 -83.9,-58.28 -137.96,-102.49 -162.74,-133.17 -36.04,-45.05 -54.06,-94.6 -54.06,-148.95 0,-59.41 20.27,-112.9 61.1,-160.77 40.82,-48.14 99.95,-72.08 177.09,-72.08 41.67,0 81.93,10.42 120.79,31.25 14.65,8.45 26.75,12.67 36.04,12.67 9.86,0 18.02,-2.25 23.94,-6.48 5.91,-4.22 15.49,-16.05 28.71,-35.75l28.72 0zm476.67 -263.54l0 283.81 182.45 0 0 81.08 -182.45 0 0 476.67c0,44.77 1.97,73.48 6.2,86.44 3.94,12.95 11.26,23.37 21.68,31.25 10.42,8.16 20,12.11 28.72,12.11 35.75,0 69.26,-27.03 101.07,-81.09l24.78 18.02c-44.49,105.03 -116.85,157.68 -216.81,157.68 -48.99,0 -90.37,-13.52 -124.16,-40.83 -33.78,-27.3 -55.46,-57.72 -64.76,-91.22 -5.35,-18.87 -8.16,-69.55 -8.16,-152.04l0 -416.98 -101.37 0 0 -29c69.55,-48.99 128.67,-100.51 177.66,-154.57 48.71,-54.06 91.51,-114.6 127.82,-181.32l27.31 0zm441.48 -89.53c35.75,0 65.88,12.39 90.66,37.44 24.77,25.06 37.16,55.19 37.16,90.38 0,35.47 -12.39,65.32 -37.44,90.1 -25.06,24.77 -55.19,37.16 -90.38,37.16 -35.48,0 -65.33,-12.39 -90.1,-37.16 -24.77,-24.78 -37.16,-54.63 -37.16,-90.1 0,-35.19 12.39,-65.32 37.16,-90.38 24.77,-25.05 54.62,-37.44 90.1,-37.44zm116 373.34l0 611.53c0,54.91 6.48,90.1 19.15,105.59 12.96,15.2 38.01,23.93 75.45,26.18l0 28.71 -420.64 0 0 -28.71c34.91,-1.13 60.82,-10.99 77.71,-30.13 11.26,-12.67 16.9,-46.73 16.9,-101.64l0 -451.05c0,-55.19 -6.48,-90.1 -19.44,-105.59 -12.95,-15.21 -38,-23.94 -75.17,-26.18l0 -28.71 326.04 0zm683.9 690.09c-33.5,35.19 -64.76,59.97 -94.04,74.33 -38.29,19.71 -78.55,29.56 -120.23,29.56 -96.85,0 -173.15,-43.08 -229.18,-129.23 -44.48,-68.71 -66.73,-150.64 -66.73,-246.37 0,-79.39 16.89,-154.29 50.68,-224.11 34.06,-70.11 80.52,-123.6 139.65,-160.77 59.13,-36.88 121.63,-55.47 187.79,-55.47 43.93,0 83.34,7.32 117.7,22.25 34.35,14.64 63.92,37.16 88.69,67.29l129.23 -89.53 27.87 0 0 998.39c0,51.53 4.5,83.62 13.23,96.57 14.37,20.56 43.08,31.25 86.44,31.82l0 28.71 -444.3 0 0 -28.71c33.79,0 58.01,-3.95 73.2,-11.83 15.21,-7.89 25.62,-18.02 31.53,-30.97 5.64,-12.95 8.45,-39.13 8.45,-78.83l0 -293.1zm0 -75.73l0 -315.34c0,-87.84 -4.79,-145.85 -14.36,-174.28 -9.58,-28.43 -27.31,-52.93 -52.93,-73.76 -13.24,-10.42 -29.85,-15.49 -50.12,-15.49 -41.67,0 -74.05,18.3 -96.86,54.9 -36.31,56.04 -54.34,160.78 -54.34,313.38 0,117.41 15.49,199.91 46.74,247.21 21.4,32.37 48.99,48.42 83.06,48.42 19.71,0 41.95,-6.75 67.01,-20.55 24.77,-13.52 48.71,-35.2 71.8,-64.48zm721.62 -962.36l0 426.56c65.05,-67.02 135.99,-100.52 213.14,-100.52 52.66,0 102.49,15.49 149.23,46.46 46.74,30.96 83.34,75.17 109.81,132.32 26.46,56.88 39.7,122.76 39.7,197.38 0,84.18 -16.9,160.49 -50.4,228.9 -33.5,68.7 -78.27,121.07 -134.58,156.83 -56.04,36.03 -120.23,54.06 -192.31,54.06 -41.95,0 -79.11,-6.48 -111.49,-19.44 -32.38,-12.95 -64.48,-34.06 -95.73,-63.35l-127.54 82.78 -27.87 0 0 -981.51c0,-45.33 -1.98,-73.2 -5.64,-83.9 -5.63,-15.77 -14.36,-27.31 -25.89,-34.91 -11.83,-7.6 -31.82,-11.83 -59.7,-12.95l0 -28.72 319.28 0zm0 500.33l0 342.37c0,69.55 1.69,114.03 5.07,133.17 5.35,32.38 18.59,58.57 39.42,78.55 20.84,20 47.58,30.13 79.96,30.13 27.87,0 52.08,-7.89 72.08,-23.94 19.99,-15.77 36.88,-47.3 50.12,-94.6 13.51,-47.02 20.27,-132.05 20.27,-255.09 0,-117.7 -14.92,-198.78 -44.48,-242.7 -21.41,-31.82 -50.12,-47.59 -86.44,-47.59 -47.3,0 -92.63,26.46 -135.99,79.68zm1005.99 -174.28c66.74,0 128.95,17.18 186.67,51.81 57.44,34.63 101.36,83.9 131.2,147.53 29.85,63.64 44.77,133.18 44.77,208.92 0,109.25 -27.59,200.75 -83.05,274.23 -67.02,88.97 -159.37,133.46 -277.05,133.46 -115.73,0 -204.98,-40.55 -267.47,-121.91 -62.51,-81.09 -93.76,-175.41 -93.76,-282.4 0,-110.37 31.81,-206.38 95.73,-288.59 63.91,-81.93 151.47,-123.04 262.97,-123.04zm3.66 57.44c-27.87,0 -51.8,10.7 -71.8,31.81 -19.99,21.12 -33.22,62.79 -39.41,125.01 -6.48,62.51 -9.58,148.94 -9.58,259.88 0,58.84 3.94,113.75 11.55,164.99 5.91,38.86 18.87,68.71 38.57,88.97 19.71,20.28 42.23,30.41 67.3,30.41 24.77,0 45.32,-6.76 61.66,-20.56 21.4,-18.59 35.47,-44.77 42.79,-78.27 10.99,-52.09 16.34,-157.67 16.34,-316.46 0,-93.2 -5.07,-157.39 -15.49,-192.3 -10.42,-34.91 -25.9,-60.26 -46.18,-76.3 -14.08,-11.55 -32.65,-17.18 -55.75,-17.18zm779.63 -383.48l0 959.54c0,54.91 6.48,90.1 19.15,105.59 12.96,15.2 38.01,23.93 75.45,26.18l0 28.71 -420.64 0 0 -28.71c34.91,-1.13 60.82,-10.99 77.71,-30.13 11.26,-12.67 16.9,-46.73 16.9,-101.64l0 -799.06c0,-54.9 -6.48,-89.81 -19.44,-105.3 -12.95,-15.49 -38,-24.22 -75.17,-26.46l0 -28.72 326.04 0z"/>
    <path class="fil4" d="M8885.99 10302.76l0 959.54c0,54.91 6.48,90.1 19.15,105.59 12.96,15.2 38.01,23.93 75.45,26.18l0 28.71 -420.64 0 0 -28.71c34.91,-1.13 60.82,-10.99 77.71,-30.13 11.26,-12.67 16.9,-46.73 16.9,-101.64l0 -799.06c0,-54.9 -6.48,-89.81 -19.44,-105.3 -12.95,-15.49 -38,-24.22 -75.17,-26.46l0 -28.72 326.04 0zm911.96 348.01l0 604.78c0,59.13 5.35,96.01 16.33,110.66 10.98,14.64 33.22,23.93 66.45,27.87l0 28.71 -314.22 0 0 -103.05c-36.88,43.92 -73.76,75.73 -110.65,95.45 -36.88,19.71 -77.99,29.56 -123.88,29.56 -43.36,0 -81.93,-13.24 -116.01,-39.98 -33.78,-26.75 -56.31,-58.01 -67.86,-93.48 -11.54,-35.75 -17.46,-98.26 -17.46,-187.23l0 -306.06c0,-58.84 -5.35,-95.72 -16.05,-110.09 -10.7,-14.64 -32.94,-23.93 -66.73,-28.43l0 -28.71 314.22 0 0 527.35c0,54.9 2.54,90.38 7.89,106.43 5.06,16.05 13.51,28.15 24.77,36.32 11.26,8.16 24.22,12.39 39.13,12.39 19.71,0 37.45,-5.35 53.5,-15.77 21.96,-14.37 48.43,-43.08 79.11,-86.72l0 -412.76c0,-58.84 -5.35,-95.72 -16.05,-110.09 -10.7,-14.64 -32.94,-23.93 -66.73,-28.43l0 -28.71 314.22 0zm822.7 571.83l25.62 19.72c-36.32,68.42 -81.65,119.1 -135.99,152.32 -54.35,33.5 -112.07,50.12 -173.16,50.12 -103.05,0 -185.26,-38.58 -246.92,-116.01 -61.66,-77.42 -92.63,-170.62 -92.63,-279.3 0,-104.74 28.15,-197.09 84.18,-276.48 67.86,-96.01 161.05,-144.16 279.86,-144.16 79.96,0 143.32,19.99 190.33,60.26 47.02,39.97 70.68,84.74 70.68,134.01 0,31.25 -9.58,56.32 -28.43,75.17 -19.15,18.59 -43.92,27.87 -74.61,27.87 -32.66,0 -59.41,-10.7 -80.52,-32.09 -21.4,-21.4 -34.35,-59.69 -39.42,-114.6 -3.1,-34.62 -11.26,-58.84 -23.94,-72.64 -12.67,-13.8 -27.58,-20.56 -44.48,-20.56 -26.46,0 -48.99,14.08 -67.86,41.95 -28.43,42.23 -42.79,106.99 -42.79,193.99 0,72.37 11.54,141.62 34.62,207.79 23.38,66.17 54.91,115.16 95.17,147.54 30.4,23.65 66.17,35.47 107.56,35.47 27.02,0 52.65,-6.19 76.86,-18.87 24.22,-12.67 52.93,-36.32 85.87,-71.52zm434.44 -919.84l0 737.96 178.79 -177.09c36.88,-35.48 59.97,-61.39 68.98,-77.71 9.01,-16.05 13.52,-31.81 13.52,-47.02 0,-14.92 -5.92,-27.59 -18.02,-37.72 -12.11,-9.86 -35.76,-17.18 -70.96,-21.69l0 -28.71 346.88 0 0 28.71c-33.22,1.69 -61.95,9.58 -86.72,23.94 -24.77,14.08 -73.2,56.87 -145.28,128.1l-84.47 83.9 181.6 265.23c73.2,108.12 116.57,168.66 130.36,181.88 18.87,18.87 42.51,29.28 70.96,31.54l0 28.71 -398.41 0 0 -28.71c17.46,0 30.41,-3.38 38.29,-9.86 7.89,-6.76 12.11,-13.8 12.11,-21.69 0,-12.67 -11.54,-36.31 -34.63,-70.39l-153.73 -224.68 -49.27 48.71 0 139.37c0,59.13 5.63,96.01 16.62,110.66 10.98,14.64 33.78,23.93 67.86,27.87l0 28.71 -398.69 0 0 -28.71c32.38,-3.38 55.19,-13.8 68.99,-31.54 9.29,-12.1 13.8,-47.86 13.8,-106.99l0 -785.54c0,-58.85 -5.36,-95.73 -15.77,-110.09 -10.71,-14.64 -32.94,-23.94 -67.02,-28.43l0 -28.72 314.22 0z"/>
   </g>
  </g>
 </g>
</svg>
